<?xml version="1.0" standalone="no"?>
<!DOCTYPE svg PUBLIC "-//W3C//DTD SVG 20010904//EN"
 "http://www.w3.org/TR/2001/REC-SVG-20010904/DTD/svg10.dtd">
<svg version="1.0" xmlns="http://www.w3.org/2000/svg"
 width="744.000000pt" height="744.000000pt" viewBox="0 0 744.000000 744.000000"
 preserveAspectRatio="xMidYMid meet">
<metadata>
Created by potrace 1.14, written by Peter Selinger 2001-2017
</metadata>
<g transform="translate(0.000000,744.000000) scale(0.100000,-0.100000)"
fill="#000000" stroke="none">
<path d="M5667 7273 c-1 0 -54 -4 -117 -7 -63 -4 -118 -10 -121 -14 -4 -4 -38
-99 -76 -212 -38 -113 -74 -205 -79 -205 -5 0 -15 -4 -21 -8 -7 -5 -13 -6 -13
-2 0 3 -13 -1 -30 -10 -16 -9 -30 -13 -30 -11 0 8 -209 -87 -235 -106 -52 -39
-152 -101 -160 -100 -5 0 -53 10 -105 21 -52 12 -138 30 -190 41 -52 11 -111
23 -130 28 -46 10 -54 10 -71 -8 -49 -52 -153 -192 -177 -240 -7 -14 -25 -48
-41 -77 l-29 -51 76 -69 c42 -37 88 -79 103 -93 48 -45 151 -135 161 -141 5
-3 6 -20 3 -37 -22 -125 -28 -352 -11 -380 3 -6 8 -26 12 -47 4 -29 1 -40 -15
-54 -21 -19 -219 -196 -298 -267 -12 -12 -23 -26 -23 -32 0 -26 104 -198 171
-283 83 -107 79 -104 159 -85 14 3 39 8 55 12 17 3 48 9 70 14 22 4 85 17 140
29 156 34 156 34 179 14 35 -31 85 -63 96 -63 5 0 10 -4 10 -8 0 -13 203 -106
287 -133 67 -21 72 -25 81 -58 8 -30 123 -372 126 -378 4 -6 159 -15 261 -15
108 -1 255 9 262 16 2 2 32 89 68 194 66 196 83 238 92 228 3 -3 14 -1 25 5
11 6 30 13 43 15 54 10 223 93 331 164 60 39 85 50 104 45 14 -3 36 -7 50 -10
14 -3 36 -8 50 -11 14 -3 36 -8 49 -10 13 -3 54 -11 90 -19 36 -8 101 -22 144
-31 l78 -15 20 26 c11 14 26 31 33 38 22 22 106 135 106 142 0 4 9 20 20 35
11 16 34 56 51 91 26 51 29 63 17 70 -8 4 -33 25 -55 46 -22 21 -72 65 -109
98 -38 33 -89 79 -113 102 -24 24 -48 43 -53 43 -6 0 -8 11 -4 24 29 114 29
365 1 457 -3 9 19 36 61 75 37 32 76 68 88 79 12 11 55 49 96 85 87 77 100 90
100 97 0 3 -10 19 -22 36 -13 18 -22 34 -20 37 5 9 -135 215 -179 262 l-44 47
-90 -20 c-129 -29 -126 -28 -168 -34 -22 -4 -50 -10 -63 -16 -14 -5 -28 -8
-32 -7 -4 1 -20 -1 -37 -5 -16 -4 -41 -9 -54 -12 -13 -2 -26 -6 -28 -9 -3 -2
-40 19 -82 48 -98 65 -221 127 -330 165 -46 16 -87 33 -91 38 -7 7 -46 114
-56 153 -2 8 -20 62 -40 120 -20 58 -36 110 -37 117 0 6 -11 14 -24 18 -31 7
-261 24 -266 18z m238 -1192 c237 -117 294 -390 119 -567 -67 -68 -97 -87
-182 -113 -77 -25 -204 -34 -257 -18 -166 51 -252 116 -307 233 -30 64 -40
157 -24 214 24 83 125 220 163 220 7 0 13 3 13 8 0 7 99 53 129 60 9 1 43 5
76 9 33 3 61 7 63 8 10 9 157 -30 207 -54z"/>
<path d="M2795 4980 c-14 -22 -25 -42 -25 -45 0 -3 -46 -99 -102 -213 -56
-114 -102 -208 -102 -209 -1 -1 -28 -4 -61 -7 -33 -3 -71 -8 -85 -10 -14 -3
-41 -7 -60 -10 -160 -25 -323 -74 -490 -146 -63 -27 -89 -34 -97 -26 -22 20
-39 33 -49 37 -17 6 -288 183 -302 196 -6 6 -21 15 -32 18 -11 3 -20 11 -20
16 0 6 -4 8 -9 5 -5 -3 -11 1 -15 9 -3 8 -15 15 -27 15 -32 0 -212 -131 -343
-250 -71 -64 -186 -183 -186 -192 0 -10 104 -234 120 -258 9 -14 31 -59 35
-70 6 -19 42 -88 54 -102 8 -10 11 -18 7 -18 -4 0 1 -13 10 -29 17 -28 17 -29
-38 -117 -56 -90 -110 -192 -146 -274 -23 -53 -80 -211 -87 -243 -2 -12 -10
-44 -17 -71 l-14 -48 -119 -38 c-66 -20 -124 -39 -130 -40 -5 -2 -75 -24 -154
-49 l-144 -47 -4 -59 c-14 -197 3 -509 33 -607 5 -17 53 -31 224 -64 14 -3 61
-14 105 -25 106 -26 124 -29 165 -36 50 -7 77 -28 85 -65 4 -18 13 -46 21 -63
7 -16 20 -48 29 -70 38 -89 92 -194 138 -270 50 -82 155 -228 168 -233 7 -3
-21 -81 -71 -197 -8 -20 -48 -125 -101 -267 l-28 -77 87 -73 c48 -40 105 -87
127 -103 22 -16 42 -33 45 -36 3 -3 10 -8 15 -10 6 -2 48 -29 95 -60 47 -31
110 -70 140 -86 l55 -30 91 71 c50 39 106 82 124 96 18 14 38 30 44 35 6 6 38
30 71 55 33 24 68 51 77 60 37 33 46 38 54 31 7 -6 200 -72 224 -76 17 -3 96
-19 100 -20 32 -9 63 -15 100 -20 25 -3 56 -7 70 -10 22 -5 193 -14 260 -15
15 0 29 -8 35 -19 9 -17 65 -112 106 -179 9 -15 39 -65 67 -112 29 -47 56 -90
62 -97 5 -7 10 -15 10 -19 0 -3 9 -18 20 -34 19 -26 22 -27 67 -18 27 5 65 11
86 13 62 8 306 74 397 106 155 56 139 39 139 149 -1 52 0 179 1 282 l1 187 62
38 c63 38 158 102 167 114 3 3 13 10 22 15 45 25 235 205 316 302 39 46 46 50
68 42 14 -6 28 -9 32 -8 4 1 30 -2 57 -5 28 -4 68 -10 90 -12 22 -3 54 -7 70
-10 17 -3 50 -7 75 -9 73 -8 192 -26 200 -31 29 -18 205 347 272 564 20 64 20
65 0 80 -11 9 -57 45 -103 80 -46 35 -88 69 -94 75 -5 6 -39 33 -75 61 -36 27
-70 54 -76 60 -6 5 -22 17 -34 25 -38 26 -51 42 -46 57 18 46 25 367 12 496
-7 65 -9 79 -21 137 -2 14 -6 36 -9 50 -2 14 -7 37 -11 51 -7 27 11 47 156
181 20 18 86 79 147 136 l110 103 -19 47 c-51 121 -176 357 -237 447 -72 107
-74 109 -152 91 -14 -3 -34 -8 -45 -10 -11 -2 -38 -9 -60 -15 -22 -5 -53 -13
-70 -15 -35 -7 -53 -10 -115 -25 -25 -5 -56 -12 -70 -14 -14 -3 -47 -11 -73
-17 l-48 -13 -72 69 c-92 88 -86 83 -137 124 -24 19 -52 43 -62 53 -10 9 -18
15 -18 11 0 -3 -29 15 -64 40 -35 26 -68 46 -74 46 -5 0 -15 6 -21 13 -6 8
-54 35 -106 62 -59 30 -95 54 -96 64 0 9 -2 30 -3 46 -2 17 -7 66 -11 110 -4
44 -8 98 -10 120 -2 22 -6 72 -10 110 -3 39 -8 89 -9 113 -2 24 -5 45 -7 46
-4 4 -143 44 -180 52 -10 2 -28 6 -39 9 -60 15 -159 34 -205 39 -22 2 -60 7
-85 10 -25 3 -73 8 -107 11 l-63 5 -25 -40z m40 -1644 c11 -2 20 -5 20 -6 0
-1 14 -3 30 -5 96 -11 282 -99 361 -170 98 -88 141 -138 188 -217 39 -66 70
-133 67 -145 -1 -2 6 -20 14 -40 22 -59 29 -109 29 -228 0 -117 -4 -147 -30
-235 -15 -50 -71 -178 -84 -190 -3 -3 -18 -24 -33 -47 -119 -175 -340 -307
-567 -339 -68 -10 -233 -6 -263 5 -15 6 -27 9 -27 6 0 -6 -122 31 -180 56
-256 109 -446 355 -486 629 -19 126 4 332 46 410 5 9 6 20 3 24 -3 3 -1 6 5 6
7 0 12 5 12 12 0 6 19 44 42 82 61 104 182 224 283 283 36 20 130 65 145 68 8
2 28 8 43 14 28 11 45 15 122 27 22 3 41 7 42 8 4 4 197 -3 218 -8z"/>
</g>
</svg>
